<svg xmlns="http://www.w3.org/2000/svg" width="800" height="800" viewBox="0 0 24 24"><defs><style>.cls-6{fill:#6c2e7c}</style></defs><g id="Icons"><path d="M12 1v11H1A10.994 10.994 0 0 1 12 1Z" style="fill:#ce5959"/><path d="M23 12a10.965 10.965 0 0 1-3.22 7.78L12 12V1a10.994 10.994 0 0 1 10.71 8.5A10.827 10.827 0 0 1 23 12Z" style="fill:#f19b5f"/><path d="M19.78 19.78A11 11 0 0 1 1 12h11Z" style="fill:#0e7cc9"/><path d="M22.71 9.5a11.013 11.013 0 0 1-5.84 7.37L12 12V1a10.994 10.994 0 0 1 10.71 8.5Z" style="fill:#ffce69"/><path d="M16.87 16.87A11.019 11.019 0 0 1 2.2 12H12Z" style="fill:#47a6e3"/></g><g id="Layer_4" data-name="Layer 4"><path d="M12 0a12 12 0 1 0 12 12A12.013 12.013 0 0 0 12 0Zm0 22a10 10 0 1 1 10-10 10.011 10.011 0 0 1-10 10Z" class="cls-6"/><path d="M13 11.586V5a1 1 0 0 0-2 0v6H5a1 1 0 0 0 0 2h6.586l4.657 4.657a1 1 0 0 0 1.414-1.414Z" class="cls-6"/></g></svg>